<?xml version="1.0" encoding="utf-8"?>
<!-- Generator: Adobe Illustrator 16.0.0, SVG Export Plug-In . SVG Version: 6.00 Build 0)  -->
<!DOCTYPE svg PUBLIC "-//W3C//DTD SVG 1.1//EN" "http://www.w3.org/Graphics/SVG/1.1/DTD/svg11.dtd">
<svg version="1.1" id="Layer_1" xmlns="http://www.w3.org/2000/svg" xmlns:xlink="http://www.w3.org/1999/xlink" x="0px" y="0px"
	 width="565px" height="627px" viewBox="0 0 565 627" enable-background="new 0 0 565 627" xml:space="preserve">
<g id="_x23_94d3ffff">
	<path fill="#94D3FF" d="M266.69,0h31.63c3.529,0.68,7.1,1.13,10.689,1.33c64.65,5.82,126.8,35.11,172.71,80.95
		c41.391,41.04,69.521,95.24,79.181,152.74c2.109,10.46,2.369,21.17,4.1,31.68v31.63c-0.59,3.21-1.07,6.45-1.28,9.72
		c-6.17,72.57-42.149,141.971-97.64,189.09c-29.46,25.24-64.22,44.221-101.311,55.57c-37.039,11.2-76.39,14.98-114.839,10.33
		c-39.74-4.5-78.4-17.78-112.7-38.33c-34.84-20.88-65.15-49.32-87.95-82.95C22.73,402.99,6.08,357.48,1.51,310.71
		c-0.3-4.16-0.71-8.32-1.51-12.41v-31.62c0.73-3.82,1.17-7.68,1.43-11.55c5.42-57.96,29.6-113.94,67.83-157.81
		C116.1,42.94,184.51,7.72,256.01,1.36C259.6,1.12,263.16,0.65,266.69,0 M266.4,38.48c-22.58,1.51-44.99,5.96-66.31,13.56
		C138.67,73.4,86.77,120.4,59.36,179.36c-18.94,40.14-26.68,85.49-22.09,129.63c3.49,34.42,14.35,68.07,31.68,98.02
		c15.65,27.22,36.69,51.29,61.37,70.681c31.5,24.71,69.13,41.55,108.57,48.5c40.59,7.33,82.97,4.05,122.02-9.19
		c34.97-11.82,67.27-31.6,93.51-57.59c23.17-22.601,41.64-49.95,54.24-79.75c16.88-40.03,23.03-84.58,17.24-127.65
		c-4.95-38.229-19.11-75.21-40.91-107c-25.44-37.17-61.25-67.21-102.431-85.52C346.32,43.2,306.05,35.94,266.4,38.48z"/>
</g>
<g id="_x23_30aaffff">
	<path fill="#30AAFF" d="M266.4,38.48c39.65-2.54,79.92,4.72,116.16,21.01c41.181,18.31,76.99,48.35,102.431,85.52
		c21.8,31.79,35.96,68.771,40.91,107c5.79,43.07-0.36,87.62-17.24,127.65c-12.601,29.8-31.07,57.149-54.24,79.75
		c-26.24,25.99-58.54,45.77-93.51,57.59c-39.05,13.24-81.43,16.521-122.02,9.19c-39.44-6.95-77.07-23.79-108.57-48.5
		C105.64,458.3,84.6,434.229,68.95,407.01c-17.33-29.949-28.19-63.6-31.68-98.02c-4.59-44.14,3.15-89.49,22.09-129.63
		C86.77,120.4,138.67,73.4,200.09,52.04C221.41,44.44,243.82,39.99,266.4,38.48 M270.33,68.32c-15.56,1.28-31.13,3.49-46.16,7.8
		c-30.18,8.34-58.3,23.62-82.12,43.9c-32.83,28.03-57.14,66.03-68.38,107.75c-4.43,16.04-6.54,32.63-7.68,49.2
		c-0.51,25.85,3.39,51.86,11.67,76.38c14.37,41.92,41.89,79.271,77.86,105.181c31.79,23.38,70.21,37.58,109.54,40.59
		c16.95,2.12,34.09,0.5,50.9-2.08c36.67-5.6,71.58-21.39,100.5-44.561c30-23.909,53.54-55.979,67.18-91.85
		c10.04-25.92,14.65-53.88,14.391-81.63c-1.28-30.24-7.99-60.42-21.28-87.72c-15.36-31.88-38.49-60.11-67.12-80.96
		c-32.28-24.11-71.55-38.61-111.71-41.51C288.78,67.61,279.5,67.78,270.33,68.32z"/>
</g>
<g id="_x23_0160a4ff">
	<path fill="#0160A4" d="M85.03,576.97c0.7,0.021,2.11,0.07,2.81,0.101c-0.02,6.3-0.07,12.6,0.02,18.909
		c8.04,0.041,16.09,0.021,24.13,0.011c0.04-6.34-0.04-12.681,0.04-19.021c0.7,0.021,2.11,0.07,2.81,0.101
		c-0.04,13.95-0.04,27.909,0,41.859c-0.7,0.03-2.11,0.08-2.81,0.101c-0.13-6.891,0.14-13.771-0.17-20.65
		c-7.92,0.16-15.85,0.141-23.77,0.01c-0.56,6.83-0.17,13.7-0.25,20.551c-0.7,0.02-2.11,0.069-2.81,0.09
		C84.98,605.01,84.98,590.99,85.03,576.97z"/>
	<path fill="#0160A4" d="M167.03,576.97c0.7,0.021,2.11,0.07,2.81,0.101c-0.04,13.95-0.04,27.909,0,41.87
		c-0.7,0.02-2.11,0.069-2.81,0.09C166.98,605.01,166.98,590.99,167.03,576.97z"/>
	<path fill="#0160A4" d="M180.03,576.97c0.7,0.021,2.11,0.07,2.81,0.09c-0.02,4.29-0.02,8.58,0,12.87
		c-0.7,0.03-2.11,0.08-2.81,0.101C179.97,585.67,179.97,581.32,180.03,576.97z"/>
	<path fill="#0160A4" d="M354.21,581.01c0.7-0.13,2.1-0.39,2.8-0.52c-0.04,2.83,0.01,5.66,0,8.5c2.66-0.021,5.33,0.04,8,0.02
		c0,0.61,0,1.811,0,2.41c-2.63,0.021-5.26,0.07-7.88-0.02c-0.26,5.87-0.08,11.75-0.16,17.62c0.061,2.31-0.14,4.819,1.09,6.89
		c2,1.78,4.721,0.83,7.03,0.38c-0.07,0.64-0.22,1.91-0.29,2.55c-2.18,0.33-4.479,1.05-6.62,0.16c-2.63-0.69-3.77-3.56-3.89-6.021
		c-0.39-7.17,0.26-14.369-0.36-21.529c-1.649-0.021-3.29-0.04-4.92-0.07c-0.01-0.58-0.029-1.74-0.04-2.32
		c1.721-0.05,3.44-0.09,5.17-0.119C354.14,586.29,354.21,583.65,354.21,581.01z"/>
	<path fill="#0160A4" d="M125.02,588.97c0.71,0.021,2.11,0.07,2.82,0.09c-0.03,9.961-0.04,19.92,0,29.881
		c-0.7,0.02-2.11,0.069-2.81,0.09C124.98,609.01,124.98,598.99,125.02,588.97z"/>
	<path fill="#0160A4" d="M193.03,588.97c0.68,0.021,2.05,0.061,2.74,0.07c0.05,1.41,0.12,2.82,0.21,4.24
		c2.65-2.69,5.97-5.351,10.03-4.73c3.72,0.021,6.14,3.11,8.08,5.87c2.54-3.46,6.33-6.59,10.93-5.85c4.66,0,8.22,4.14,8.53,8.6
		c0.59,7.23,0.11,14.51,0.29,21.771c-0.7,0.02-2.11,0.069-2.81,0.09c-0.14-6.7,0.12-13.4-0.1-20.101c-0.06-3.239-1.52-7.06-5.1-7.7
		c-5.47-1.649-10.65,3.421-10.86,8.721c-0.37,6.32-0.06,12.66-0.13,18.99c-0.7,0.02-2.11,0.069-2.81,0.09
		c-0.09-6.04,0.03-12.07-0.03-18.101c-0.08-2.909-0.43-6.189-2.67-8.3c-3.06-2.56-8.17-2.109-10.72,0.97
		c-2.34,2.521-2.8,6.091-2.79,9.391c-0.04,5.31,0.01,10.63,0.02,15.95c-0.7,0.02-2.11,0.069-2.82,0.09
		C192.98,609.01,192.98,598.99,193.03,588.97z"/>
	<path fill="#0160A4" d="M330.03,588.97c0.689,0.021,2.06,0.061,2.75,0.08c0.05,1.71,0.109,3.42,0.2,5.141
		c1.609-1.82,2.92-4.101,5.229-5.11c1.82-0.82,3.84-0.4,5.75-0.271c0.03,0.7,0.07,2.091,0.1,2.79c-4.02-1.67-8.449,0.66-9.77,4.71
		c-2.56,7.23-1.09,15.11-1.45,22.631c-0.7,0.02-2.109,0.069-2.81,0.09C329.98,609.01,329.98,598.99,330.03,588.97z"/>
	<path fill="#0160A4" d="M400.03,588.97c0.689,0.021,2.06,0.07,2.75,0.09c0.04,1.641,0.1,3.28,0.189,4.92
		c3.19-4.569,9.33-7,14.59-4.529c3.921,1.84,5.301,6.47,5.391,10.49c0.13,6.359,0.03,12.729,0.02,19.09
		c-0.7-0.021-2.109-0.07-2.81-0.101c-0.01-5.989,0.109-11.979-0.021-17.96c-0.1-3.16-0.649-6.81-3.37-8.81
		c-3.659-2.311-8.81-1.09-11.42,2.24c-2.109,2.319-2.54,5.569-2.529,8.59c-0.04,5.31,0.01,10.62,0.02,15.939
		c-0.7,0.03-2.109,0.08-2.81,0.101C399.98,609.01,399.98,598.99,400.03,588.97z"/>
</g>
<g id="_x23_176eabff">
	<path fill="#176EAB" d="M125.29,577.13c1.33-0.38,2.83-0.16,3.68,1.05c0.77,2.431-2.79,3.811-4.32,2.181
		C123.37,579.54,124.01,577.59,125.29,577.13z"/>
</g>
<g id="_x23_0361a5ff">
	<path fill="#0361A5" d="M267.17,579.2c6-3.46,13.43-3.24,19.87-1.221c-0.01,0.711-0.03,2.131-0.03,2.841
		c-5.53-1.95-11.88-2.841-17.32-0.141c-11.3,5.511-13.1,22.7-4.96,31.601c5.79,6.069,15.09,5.47,22.34,2.689
		c-0.07,0.7-0.221,2.11-0.301,2.811c-6.879,2.05-14.95,2.899-21.2-1.34C253.19,608.04,254.35,586.65,267.17,579.2z"/>
</g>
<g id="_x23_0563a5ff">
	<path fill="#0563A5" d="M303.31,589.26c5.53-1.78,12.561-0.609,15.9,4.54c3.65,5.811,3.82,13.84,0.26,19.74
		c-4.76,7.99-18.18,7.97-22.939,0C291.6,605.65,293.63,592.41,303.31,589.26 M305.25,591.22c-5.56,1.4-8.97,7.24-8.38,12.78
		c-0.44,4.55,1.66,9.229,5.51,11.75c3.48,1.75,7.8,1.771,11.29,0.03c3.05-1.87,5.14-5.2,5.35-8.79c0.28-4.44,0.4-9.63-3.069-12.96
		C313.33,591.05,308.95,590.479,305.25,591.22z"/>
</g>
<g id="_x23_0260a4ff">
	<path fill="#0260A4" d="M371.59,594.26c-0.42-3.819,3.7-4.6,6.55-5.35c3.36-0.74,7.37-0.521,9.94,2.03
		c2.37,2.33,2.9,5.81,2.92,8.989c0.03,6.36,0.01,12.73-0.02,19.101c-0.69-0.021-2.07-0.061-2.761-0.08
		c-0.05-1.721-0.109-3.43-0.18-5.13c-3.1,3.83-7.88,6.93-13,5.31c-6.32-1.29-8.17-10.42-3.23-14.32
		c4.561-3.58,10.75-3.25,16.19-4.22c0.24-3.479-0.58-7.92-4.33-9.21C379.41,589.93,375.37,592.66,371.59,594.26 M375.27,605.229
		c-4.189,1.58-4.84,8.351-1.02,10.62c4.22,2.86,10.66,0.46,12.63-4.079c1.62-2.681,1.19-5.91,1.271-8.891
		C383.85,603.59,379.37,603.63,375.27,605.229z"/>
</g>
<g id="_x23_0261a4ff">
	<path fill="#0261A4" d="M432.59,594.26c-0.42-3.819,3.69-4.6,6.55-5.35c3.36-0.74,7.36-0.521,9.94,2.03c2.36,2.34,2.9,5.81,2.92,9
		c0.03,6.359,0.01,12.72-0.02,19.09c-0.69-0.021-2.07-0.061-2.771-0.08c-0.05-1.721-0.1-3.43-0.17-5.13
		c-3.09,3.84-7.88,6.93-12.99,5.31c-6.33-1.28-8.18-10.42-3.24-14.32c4.57-3.569,10.75-3.26,16.19-4.22
		c0.23-3.479-0.58-7.93-4.33-9.21C440.41,589.93,436.36,592.66,432.59,594.26 M436.27,605.229c-4.18,1.58-4.84,8.351-1.02,10.62
		c4.21,2.86,10.65,0.46,12.63-4.069c1.62-2.69,1.19-5.92,1.271-8.9C444.85,603.58,440.36,603.64,436.27,605.229z"/>
</g>
<g id="_x23_0663a5ff">
	<path fill="#0663A5" d="M138.19,614.85c2.71-1.71,5.59,2.73,2.6,4.271C138.08,620.87,135.22,616.38,138.19,614.85z"/>
	<path fill="#0663A5" d="M461.19,614.85c2.71-1.689,5.569,2.721,2.6,4.271C461.08,620.86,458.22,616.4,461.19,614.85z"/>
</g>
</svg>
